# xmcd
#
# Track frame offsets: 
#        150
#        17401
#        37572
#        53831
#        70723
#        95222
#        123257
#        137748
#        157445
#        174807
#        190220
#        206997
#        221978
#        237856
#        250846
#        273860
#        290139
#        306570
#        322802
#        338989
#
# Disc length: 4744 seconds
#
# Revision: 0
# Processed by: cddbd v1.5.2PL0 Copyright (c) Steve Scherf et al.
# Submitted via: ExactAudioCopy v0.99pb4
#
DISCID=2e128614
DTITLE=Praga Khan - Alle 40 Goed - CD2
DYEAR=2010
DGENRE=Techno
TTITLE0=Adultery
TTITLE1=The Moon (CS Johansen Remix)
TTITLE2=Love (Video Edit)
TTITLE3=Immortal Sin
TTITLE4=Keep The Dream Alive
TTITLE5=Gun Buck
TTITLE6=Turn Me On
TTITLE7=Falling (Feat. Axelle Red)
TTITLE8=Reflections
TTITLE9=Sayonara Greetings
TTITLE10=Rhythm (Feat. Roos Van Acker)
TTITLE11=Glamour Girl (Album Version)
TTITLE12=Tausend Sterne
TTITLE13=Freakazoidz
TTITLE14=Visions Of Heaven (Explicit)
TTITLE15=No Earthly Connection
TTITLE16=Love Power
TTITLE17=Kiss The Sky
TTITLE18=Adult Entertainment
TTITLE19=Kick Back For The Rave Alarm (Rap Remix)
EXTD=
EXTT0=
EXTT1=
EXTT2=
EXTT3=
EXTT4=
EXTT5=
EXTT6=
EXTT7=
EXTT8=
EXTT9=
EXTT10=
EXTT11=
EXTT12=
EXTT13=
EXTT14=
EXTT15=
EXTT16=
EXTT17=
EXTT18=
EXTT19=
PLAYORDER=
